<svg width="48" height="48" viewBox="0 0 48 48" fill="none" xmlns="http://www.w3.org/2000/svg">
<rect style="fill:#323238;" width="48" height="48"/>
<path style="fill:#FFFFFF;" d="M21.8,23.1c0.6,0.4,1.2,0.7,1.6,1.2c1.5,1.6,1.6,5.4-1.5,6.7c-1,0.4-1.9,0.6-3,0.6c-2.3,0-4.7,0-7,0
	c-0.3,0-0.4-0.1-0.4-0.4c0-4.9,0-9.8,0-14.7c0-0.2,0-0.4,0.3-0.4c2.6,0,5.1,0,7.7,0.1c0.6,0,1.3,0.1,1.9,0.3
	c1.6,0.5,2.3,1.7,2.3,3.5c0,1.3-0.6,2.3-1.8,2.9C21.8,23,21.8,23.1,21.8,23.1z M14.9,24.7c0,1.3,0,2.6,0,3.9c0,0.1,0.1,0.2,0.2,0.2
	c1.4,0,2.7,0,4.1-0.1c0.6,0,1.2-0.3,1.5-1c0.7-1.4-0.1-3-1.6-3.1C17.8,24.6,16.4,24.7,14.9,24.7z M14.9,22.3c1.3,0,2.6,0,3.9,0
	c0.6,0,1.2-0.4,1.4-1.1c0.4-1.3-0.2-2.3-1.6-2.4c-1.2-0.1-2.3,0-3.5-0.1c-0.2,0-0.3,0.1-0.3,0.3c0,0.6,0,1.2,0,1.8
	C14.9,21.3,14.9,21.8,14.9,22.3z"/>
<path style="fill:#FFFFFF;" d="M28.5,26.7c-0.1,1.8,1.1,2.9,2.8,2.8c0.9-0.1,1.7-0.4,2.2-1.3c0-0.1,0.1-0.2,0.2-0.2
	c0.8,0,1.7,0,2.5,0c-0.1,0.2-0.1,0.4-0.2,0.6c-0.7,1.7-2,2.7-3.8,3c-1.2,0.2-2.4,0.1-3.6-0.3c-1.7-0.7-2.7-2.1-3.1-3.8
	c-0.4-1.7-0.2-3.3,0.7-4.8c1-1.7,2.5-2.5,4.5-2.7c1.8-0.1,3.4,0.5,4.6,2c1,1.3,1.3,2.8,1.3,4.4c0,0.2-0.1,0.2-0.3,0.2
	c-0.6,0-1.2,0-1.7,0c-1.8,0-3.7,0-5.5,0C28.8,26.7,28.7,26.7,28.5,26.7z M33.4,24.7c-0.1-0.9-0.3-1.6-1.1-2c-1-0.5-2-0.5-2.9,0.2
	c-0.6,0.4-0.8,1.1-0.9,1.8C30.1,24.7,31.7,24.7,33.4,24.7z"/>
<path style="fill:#FFFFFF;" d="M31,18.6c-0.9,0-1.8,0-2.7,0c-0.3,0-0.4-0.1-0.4-0.4c0-0.3,0-0.6,0-0.9c0-0.2,0.1-0.3,0.3-0.3
	c1.9,0,3.8,0,5.7,0c0.2,0,0.3,0.1,0.3,0.3c0,0.3,0,0.6,0,0.9c0,0.3-0.1,0.3-0.3,0.3C32.9,18.6,31.9,18.6,31,18.6z"/>
<path style="fill:#323238;" d="M14.9,24.7c1.5,0,2.9-0.1,4.2,0c1.5,0.1,2.3,1.7,1.6,3.1c-0.3,0.6-0.9,0.9-1.5,1
	c-1.4,0.1-2.7,0.1-4.1,0.1c-0.1,0-0.2-0.1-0.2-0.2C14.9,27.3,14.9,26,14.9,24.7z"/>
<path style="fill:#323238;" d="M14.9,22.3c0-0.5,0-1,0-1.5c0-0.6,0-1.2,0-1.8c0-0.2,0.1-0.3,0.3-0.3c1.2,0,2.3,0,3.5,0.1
	c1.4,0.1,2,1.1,1.6,2.4c-0.2,0.7-0.8,1-1.4,1.1C17.5,22.3,16.2,22.3,14.9,22.3z"/>
<path style="fill:#323238;" d="M33.4,24.7c-1.7,0-3.2,0-4.9,0c0-0.7,0.3-1.4,0.9-1.8c0.9-0.7,1.9-0.7,2.9-0.2
	C33,23.1,33.3,23.8,33.4,24.7z"/>
</svg>
